{
  "accessors": [
    {
      "bufferView": 2,
      "componentType": 5126,
      "count": 65532,
      "max": [
        54.43368148803711,
        58.7252311706543,
        76.21671295166016
      ],
      "min": [
        0.0,
        0.3703269958496094,
        29.564754486083984
      ],
      "type": "VEC3"
    },
    {
      "bufferView": 2,
      "byteOffset": 786384,
      "componentType": 5126,
      "count": 65532,
      "max": [
        0.999885618686676,
        0.9998472929000854,
        0.9999733567237854
      ],
      "min": [
        -0.9999967217445374,
        -0.999970018863678,
        -0.9999811053276062
      ],
      "type": "VEC3"
    },
    {
      "bufferView": 3,
      "componentType": 5126,
      "count": 65532,
      "max": [
        1.0,
        1.0,
        1.0,
        1.0
      ],
      "min": [
        0.3450980484485626,
        0.2823529541492462,
        0.7098039388656616,
        1.0
      ],
      "type": "VEC4"
    },
    {
      "bufferView": 1,
      "componentType": 5126,
      "count": 65532,
      "max": [
        0.75,
        1.0
      ],
      "min": [
        0.0,
        0.1796875
      ],
      "type": "VEC2"
    },
    {
      "bufferView": 0,
      "componentType": 5125,
      "count": 294681,
      "type": "SCALAR"
    },
    {
      "bufferView": 2,
      "byteOffset": 1572768,
      "componentType": 5126,
      "count": 65532,
      "max": [
        64.61792755126953,
        58.4085807800293,
        72.92578887939453
      ],
      "min": [
        18.82453155517578,
        0.44615936279296875,
        31.145111083984375
      ],
      "type": "VEC3"
    },
    {
      "bufferView": 2,
      "byteOffset": 2359152,
      "componentType": 5126,
      "count": 65532,
      "max": [
        0.9999914169311523,
        0.9999986886978149,
        0.9999637603759766
      ],
      "min": [
        -0.9999922513961792,
        -0.9999738335609436,
        -0.9999967813491821
      ],
      "type": "VEC3"
    },
    {
      "bufferView": 3,
      "byteOffset": 1048512,
      "componentType": 5126,
      "count": 65532,
      "max": [
        1.0,
        1.0,
        1.0,
        1.0
      ],
      "min": [
        0.3450980484485626,
        0.2823529541492462,
        0.7098039388656616,
        1.0
      ],
      "type": "VEC4"
    },
    {
      "bufferView": 1,
      "byteOffset": 524256,
      "componentType": 5126,
      "count": 65532,
      "max": [
        0.75,
        1.0
      ],
      "min": [
        0.25,
        0.0
      ],
      "type": "VEC2"
    },
    {
      "bufferView": 0,
      "byteOffset": 1178724,
      "componentType": 5125,
      "count": 258156,
      "type": "SCALAR"
    },
    {
      "bufferView": 2,
      "byteOffset": 3145536,
      "componentType": 5126,
      "count": 15401,
      "max": [
        56.094970703125,
        54.733802795410156,
        76.21671295166016
      ],
      "min": [
        5.15233039855957,
        0.0,
        39.04777145385742
      ],
      "type": "VEC3"
    },
    {
      "bufferView": 2,
      "byteOffset": 3330348,
      "componentType": 5126,
      "count": 15401,
      "max": [
        0.9999434947967529,
        0.9998375773429871,
        0.999825656414032
      ],
      "min": [
        -0.9998331069946289,
        -0.9995176792144775,
        -0.9993197321891785
      ],
      "type": "VEC3"
    },
    {
      "bufferView": 3,
      "byteOffset": 2097024,
      "componentType": 5126,
      "count": 15401,
      "max": [
        1.0,
        1.0,
        1.0,
        1.0
      ],
      "min": [
        0.3450980484485626,
        0.2823529541492462,
        0.7098039388656616,
        1.0
      ],
      "type": "VEC4"
    },
    {
      "bufferView": 1,
      "byteOffset": 1048512,
      "componentType": 5126,
      "count": 15401,
      "max": [
        0.5,
        0.5
      ],
      "min": [
        0.25,
        0.25
      ],
      "type": "VEC2"
    },
    {
      "bufferView": 0,
      "byteOffset": 2211348,
      "componentType": 5125,
      "count": 36987,
      "type": "SCALAR"
    },
    {
      "bufferView": 2,
      "byteOffset": 3515160,
      "componentType": 5126,
      "count": 4747,
      "max": [
        60.451290130615234,
        83.59197235107422,
        79.47148132324219
      ],
      "min": [
        4.4000396728515625,
        14.354042053222656,
        0.0
      ],
      "type": "VEC3"
    },
    {
      "bufferView": 2,
      "byteOffset": 3572124,
      "componentType": 5126,
      "count": 4747,
      "max": [
        0.9999133348464966,
        0.9999263286590576,
        0.9988803863525391
      ],
      "min": [
        -0.9999403953552246,
        -0.9999597072601318,
        -0.9999023675918579
      ],
      "type": "VEC3"
    },
    {
      "bufferView": 3,
      "byteOffset": 2343440,
      "componentType": 5126,
      "count": 4747,
      "max": [
        1.0,
        1.0,
        1.0,
        1.0
      ],
      "min": [
        0.3450980484485626,
        0.2823529541492462,
        0.7098039388656616,
        1.0
      ],
      "type": "VEC4"
    },
    {
      "bufferView": 0,
      "byteOffset": 2359296,
      "componentType": 5125,
      "count": 24576,
      "type": "SCALAR"
    }
  ],
  "asset": {
    "extras": {
      "author": "billetramuseum (https://sketchfab.com/billetramuseum)",
      "license": "CC-BY-4.0 (http://creativecommons.org/licenses/by/4.0/)",
      "source": "https://sketchfab.com/3d-models/david-atlas-abstracta-x-bill-etra-d7b3abac5cf54ab9bfa52e76894c9383",
      "title": "David Atlas Abstracta x Bill Etra"
    },
    "generator": "Sketchfab-12.68.0",
    "version": "2.0"
  },
  "bufferViews": [
    {
      "buffer": 0,
      "byteLength": 2457600,
      "name": "floatBufferViews",
      "target": 34963
    },
    {
      "buffer": 0,
      "byteLength": 1171720,
      "byteOffset": 2457600,
      "byteStride": 8,
      "name": "floatBufferViews",
      "target": 34962
    },
    {
      "buffer": 0,
      "byteLength": 3629088,
      "byteOffset": 3629320,
      "byteStride": 12,
      "name": "floatBufferViews",
      "target": 34962
    },
    {
      "buffer": 0,
      "byteLength": 2419392,
      "byteOffset": 7258408,
      "byteStride": 16,
      "name": "floatBufferViews",
      "target": 34962
    }
  ],
  "buffers": [
    {
      "byteLength": 9677800,
      "uri": "scene.bin"
    }
  ],
  "materials": [
    {
      "alphaMode": "BLEND",
      "doubleSided": true,
      "name": "material_0",
      "pbrMetallicRoughness": {
        "baseColorFactor": [
          1.0,
          1.0,
          1.0,
          0.40682164634146345
        ],
        "roughnessFactor": 0.0
      }
    }
  ],
  "meshes": [
    {
      "name": "Object_0",
      "primitives": [
        {
          "attributes": {
            "COLOR_0": 2,
            "NORMAL": 1,
            "POSITION": 0,
            "TEXCOORD_0": 3
          },
          "indices": 4,
          "material": 0,
          "mode": 4
        }
      ]
    },
    {
      "name": "Object_1",
      "primitives": [
        {
          "attributes": {
            "COLOR_0": 7,
            "NORMAL": 6,
            "POSITION": 5,
            "TEXCOORD_0": 8
          },
          "indices": 9,
          "material": 0,
          "mode": 4
        }
      ]
    },
    {
      "name": "Object_2",
      "primitives": [
        {
          "attributes": {
            "COLOR_0": 12,
            "NORMAL": 11,
            "POSITION": 10,
            "TEXCOORD_0": 13
          },
          "indices": 14,
          "material": 0,
          "mode": 4
        }
      ]
    },
    {
      "name": "Object_3",
      "primitives": [
        {
          "attributes": {
            "COLOR_0": 17,
            "NORMAL": 16,
            "POSITION": 15
          },
          "indices": 18,
          "material": 0,
          "mode": 4
        }
      ]
    }
  ],
  "nodes": [
    {
      "children": [
        1
      ],
      "matrix": [
        1.0,
        0.0,
        0.0,
        0.0,
        0.0,
        2.220446049250313e-16,
        -1.0,
        0.0,
        0.0,
        1.0,
        2.220446049250313e-16,
        0.0,
        0.0,
        0.0,
        0.0,
        1.0
      ],
      "name": "Sketchfab_model"
    },
    {
      "children": [
        2,
        3,
        4,
        5
      ],
      "matrix": [
        1.0,
        0.0,
        0.0,
        0.0,
        0.0,
        1.0,
        0.0,
        0.0,
        0.0,
        0.0,
        1.0,
        0.0,
        -32.308963775634766,
        -47.8789176940918,
        -38.52934646606445,
        1.0
      ],
      "name": "menstyi.obj.cleaner.gles"
    },
    {
      "mesh": 0,
      "name": "Object_2"
    },
    {
      "mesh": 1,
      "name": "Object_3"
    },
    {
      "mesh": 2,
      "name": "Object_4"
    },
    {
      "mesh": 3,
      "name": "Object_5"
    }
  ],
  "scene": 0,
  "scenes": [
    {
      "name": "Sketchfab_Scene",
      "nodes": [
        0
      ]
    }
  ]
}
